<?xml version="1.0" encoding="UTF-8"?>
<svg width="0.7em" height="1em" viewBox="0 0 17 24" version="1.1" xmlns="http://www.w3.org/2000/svg" xmlns:xlink="http://www.w3.org/1999/xlink">
    <g id="形状结合" stroke="none" stroke-width="1" fill="none" fill-rule="evenodd" fill-opacity="0.3">
        <path d="M-2.5,20 C-2.57197696,20 -2.64276986,19.994964 -2.7120411,19.9852173 C-2.73432366,19.9814275 -2.75653495,19.9777437 -2.77857573,19.9735839 C-3.15480918,19.9039896 -3.48134212,19.6938884 -3.70190902,19.3984119 C-3.86360731,19.1828976 -3.96821065,18.9221394 -3.99384857,18.6373892 L-4,18.5 L-4,5.50524116 C-4,4.72010396 -3.40612531,4.07536575 -2.6373892,4.00615143 L-2.5,4 C-1.67157288,4 -1,4.66712976 -1,5.50524116 L-1,17 L10.4947588,17 C11.279896,17 11.9246343,17.5938747 11.9938486,18.3626108 L12,18.5 C12,19.3284271 11.3328702,20 10.4947588,20 L-2.5,20 Z" fill="#000000" transform="translate(4.000000, 12.000000) scale(-1, 1) rotate(45.000000) translate(-4.000000, -12.000000) "></path>
    </g>
</svg>
