<?xml version="1.0" encoding="UTF-8"?>
<svg width="1em" height="1em" viewBox="0 0 72 72" version="1.1" xmlns="http://www.w3.org/2000/svg" xmlns:xlink="http://www.w3.org/1999/xlink">
    <!-- Generator: Sketch 64 (93537) - https://sketch.com -->
    <title>编组备份</title>
    <desc>Created with Sketch.</desc>
    <g id="SP" stroke="none" stroke-width="1" fill="none" fill-rule="evenodd">
        <g id="订单详情-订单信息备份-19" transform="translate(-52.000000, -319.000000)" fill-rule="nonzero">
            <g id="编组备份" transform="translate(52.000000, 319.000000)">
                <g id="分组备份">
                    <circle id="Oval-12" fill="#D7D7D7" cx="36" cy="36" r="36"></circle>
                    <path d="M24,18 L24,22.3195977 C23.9970689,24.0641938 24.7613931,25.7250517 26.0967072,26.8755413 L30.1955813,32.9614471 C31.0858827,33.7283733 31.5954521,34.8356552 31.5933402,35.9987428 C31.5933402,37.1666434 31.0826207,38.2754575 30.1955813,39.0360386 L26.0967072,45.1244587 C24.7613931,46.2749483 23.9970689,47.9358062 24,49.6804023 L24,54 L48.0001358,54 L48.0001358,49.6804023 C48.0030492,47.9358062 47.2387249,46.2749483 45.9034108,45.1244587 L41.8045367,39.0360386 C40.9142354,38.2691124 40.4046659,37.1618305 40.4067778,35.9987428 C40.4067778,34.8308423 40.9174974,33.7220282 41.8045367,32.9614471 L45.9034108,26.8767984 C47.2390616,25.72602 48.0034188,24.0646322 48.0001358,22.3195977 L48.0001358,18 L24,18 Z" id="路径" stroke="#FFFFFF" stroke-width="4"></path>
                </g>
            </g>
        </g>
    </g>
</svg>
