<?xml version="1.0" encoding="UTF-8"?>
<svg width="315px" height="197px" viewBox="0 0 315 197" version="1.1" xmlns="http://www.w3.org/2000/svg" xmlns:xlink="http://www.w3.org/1999/xlink">
    <!-- Generator: Sketch 64 (93537) - https://sketch.com -->
    <title>Group 17</title>
    <desc>Created with Sketch.</desc>
    <g id="SP" stroke="none" stroke-width="1" fill="none" fill-rule="evenodd">
        <g id="代购申请-基本信息-未填写备份-3" transform="translate(-395.000000, -1136.000000)">
            <g id="编组-11备份-4" transform="translate(0.000000, 269.000000)">
                <g id="编组-2" transform="translate(0.000000, 774.000000)">
                    <g id="编组" transform="translate(40.000000, 93.000000)">
                        <g id="Group-18">
                            <g transform="translate(355.000000, 0.000000)">
                                <g id="Group-17">
                                    <rect id="Rectangle-6" fill="#F4F5F7" x="0" y="0" width="315" height="197" rx="18.4341451"></rect>
                                    <path d="M51.5789474,22.0934579 C65.8220804,22.0934579 77.3684211,33.6336323 77.3684211,47.8691589 C77.3684211,55.0621382 74.4205063,61.5669629 69.6663109,66.2426084 L71.0549644,73.9035025 C71.4179988,75.9070575 70.0880941,77.8255574 68.0845391,78.1885918 C67.867635,78.2278938 67.6476431,78.2476636 67.4272071,78.2476636 L34.809635,78.2476636 C32.7734556,78.2476636 31.122806,76.597014 31.122806,74.5608345 C31.122806,74.3403985 31.1425758,74.1204066 31.1818777,73.9035025 L32.7141277,65.4444381 C28.4181206,60.8401527 25.7894737,54.6614686 25.7894737,47.8691589 C25.7894737,33.6336323 37.3358143,22.0934579 51.5789474,22.0934579 Z" id="Combined-Shape" fill-opacity="0.290336277" fill="#FF5B2C"></path>
                                    <rect id="Rectangle-10" fill-opacity="0.1" fill="#000000" x="133.552632" y="129.799065" width="119.736842" height="11.046729"></rect>
                                    <rect id="Rectangle-10" fill-opacity="0.1" fill="#000000" x="133.552632" y="150.051402" width="119.736842" height="11.046729"></rect>
                                    <g id="Group-5" transform="translate(119.736842, 28.537383)" fill="#000000" fill-opacity="0.1">
                                        <rect id="Rectangle-10" x="0" y="0" width="147.368421" height="11.046729"></rect>
                                        <rect id="Rectangle-10" x="0" y="27.6168224" width="22.1052632" height="22.0934579"></rect>
                                        <rect id="Rectangle-10" x="31.3157895" y="27.6168224" width="22.1052632" height="22.0934579"></rect>
                                        <rect id="Rectangle-10" x="62.6315789" y="27.6168224" width="22.1052632" height="22.0934579"></rect>
                                        <rect id="Rectangle-10" x="93.9473684" y="27.6168224" width="22.1052632" height="22.0934579"></rect>
                                        <rect id="Rectangle-10" x="125.263158" y="27.6168224" width="22.1052632" height="22.0934579"></rect>
                                    </g>
                                    <rect id="Rectangle-6" fill="#F4F5F7" opacity="0.300011322" x="0" y="0" width="315" height="197" rx="18.4341451"></rect>
                                    <path d="M156.578947,72.7242991 L156.578526,94.8172991 L177.763158,94.817757 L177.763158,97.5794393 L156.578526,97.5792991 L156.578947,118.752336 L153.815789,118.752336 L153.815526,97.5792991 L131.710526,97.5794393 L131.710526,94.817757 L153.815526,94.8172991 L153.815789,72.7242991 L156.578947,72.7242991 Z" id="Combined-Shape" fill="#999999"></path>
                                </g>
                            </g>
                        </g>
                    </g>
                </g>
            </g>
        </g>
    </g>
</svg>