<?xml version="1.0" encoding="UTF-8"?>
<svg width="281px" height="220px" viewBox="0 0 281 220" version="1.1" xmlns="http://www.w3.org/2000/svg" xmlns:xlink="http://www.w3.org/1999/xlink">
    <!-- Generator: Sketch 64 (93537) - https://sketch.com -->
    <title>分组备份 2</title>
    <desc>Created with Sketch.</desc>
    <defs>
        <linearGradient x1="50%" y1="0%" x2="50%" y2="100%" id="linearGradient-1">
            <stop stop-color="#FFFFFF" offset="0%"></stop>
            <stop stop-color="#CFCFE1" offset="100%"></stop>
        </linearGradient>
        <linearGradient x1="100%" y1="50%" x2="0%" y2="50%" id="linearGradient-2">
            <stop stop-color="#DEE2EB" offset="0%"></stop>
            <stop stop-color="#BAC1D3" offset="100%"></stop>
        </linearGradient>
        <linearGradient x1="22.4423363%" y1="50%" x2="82.4311756%" y2="50%" id="linearGradient-3">
            <stop stop-color="#7D91B7" offset="0%"></stop>
            <stop stop-color="#475880" offset="100%"></stop>
        </linearGradient>
        <linearGradient x1="50%" y1="49.7621879%" x2="84.9464699%" y2="50.2378121%" id="linearGradient-4">
            <stop stop-color="#E6E8F0" offset="0%"></stop>
            <stop stop-color="#C8CDDC" offset="100%"></stop>
        </linearGradient>
    </defs>
    <g id="SP" stroke="none" stroke-width="1" fill="none" fill-rule="evenodd">
        <g id="iPhone-8备份-18" transform="translate(-234.000000, -768.000000)" fill-rule="nonzero">
            <g id="分组备份-2" transform="translate(235.000000, 768.000000)">
                <circle id="Oval-12" fill="url(#linearGradient-1)" cx="153" cy="103.846154" r="73.8461538"></circle>
                <path d="M153,177.692308 C193.784105,177.692308 226.846154,144.630258 226.846154,103.846154 C226.846154,63.0620492 193.784105,30 153,30 L153,177.692308 Z" id="Oval-12" fill="url(#linearGradient-2)" opacity="0.510184152"></path>
                <g id="Group-49-Copy" transform="translate(151.000000, 106.000000)">
                    <path d="M21.8,4 L33.8,4 L33.8,12.8 C33.8,15.4509668 31.6509668,17.6 29,17.6 L26.6,17.6 C23.9490332,17.6 21.8,15.4509668 21.8,12.8 L21.8,4 L21.8,4 Z" id="Rectangle-63-Copy" fill="#FFE4A9"></path>
                    <polygon id="Rectangle-72-Copy-4" fill="#636363" transform="translate(31.217544, 78.305882) rotate(-1.000000) translate(-31.217544, -78.305882) " points="29.6733861 76.4703308 32.7610966 76.4708351 32.7617016 80.1414339 29.6739911 80.1409296"></polygon>
                    <polygon id="Rectangle-72-Copy-5" fill="#636363" transform="translate(25.042105, 78.305882) rotate(-1.000000) translate(-25.042105, -78.305882) " points="23.4979475 76.4703308 26.585658 76.4708351 26.586263 80.1414339 23.4985525 80.1409296"></polygon>
                    <circle id="Oval-21-Copy" fill="#FFE4A9" cx="21.4" cy="10.8" r="2"></circle>
                    <circle id="Oval-21-Copy-2" fill="#FFE4A9" cx="35" cy="10.8" r="2"></circle>
                    <path d="M23.4,0 L32.2,0 C33.0836556,5.97197047e-17 33.8,0.7163444 33.8,1.6 L33.8,4 L33.8,4 L21.8,4 L21.8,1.6 C21.8,0.7163444 22.5163444,3.84369505e-16 23.4,0 Z" id="Rectangle-65-Copy" fill="#595959"></path>
                    <path d="M27.8,18.4 C31.5555363,18.4 34.6,21.4444637 34.6,25.2 L34.6,40 L34.6,40 L21,40 L21,25.2 C21,21.4444637 24.0444637,18.4 27.8,18.4 Z" id="形状结合" fill="#F4F7FF"></path>
                    <g id="编组" transform="translate(25.000000, 19.000000)">
                        <path d="M23.9024717,4 L26.4,5.01682731 L26.4,12.2962651 L24.799,14.619 L24.8,15.2 L24.496,15.059 L24.4,15.2 L24.255,15.132 L22.9541309,17.661318 L20.7531885,16.5503765 L22.427,13.294 L21.2978102,10.9294422 L20,7.2 L21.2978102,7.2 L22.3489051,8.8996504 L22.399,8.917 L22.4,4.40285141 L23.9024717,4 Z" id="形状结合" fill="#FFE4A9" transform="translate(23.200000, 10.830659) rotate(76.000000) translate(-23.200000, -10.830659) "></path>
                        <path d="M19.0721795,5 L22.9258492,10.1097192 L12.9789018,17.6115502 C11.8209099,18.4848894 10.2283227,18.4663237 9.09381567,17.5876187 L8.94850767,17.4681297 L2,11.4067708 L6.20711853,6.58389264 L11.1983092,10.9370716 L19.0721795,5 Z" id="Path-10" fill="#F4F7FF" transform="translate(12.462925, 11.628349) rotate(30.000000) translate(-12.462925, -11.628349) "></path>
                    </g>
                    <g id="编组备份" transform="translate(15.500000, 30.500000) scale(-1, 1) translate(-15.500000, -30.500000) translate(0.000000, 19.000000)">
                        <path d="M23.9024717,4 L26.4,5.01682731 L26.4,12.2962651 L24.799,14.619 L24.8,15.2 L24.496,15.059 L24.4,15.2 L24.255,15.132 L22.9541309,17.661318 L20.7531885,16.5503765 L22.427,13.294 L21.2978102,10.9294422 L20,7.2 L21.2978102,7.2 L22.3489051,8.8996504 L22.399,8.917 L22.4,4.40285141 L23.9024717,4 Z" id="形状结合" fill="#FFE4A9" transform="translate(23.200000, 10.830659) rotate(76.000000) translate(-23.200000, -10.830659) "></path>
                        <path d="M19.0721795,5 L22.9258492,10.1097192 L12.9789018,17.6115502 C11.8209099,18.4848894 10.2283227,18.4663237 9.09381567,17.5876187 L8.94850767,17.4681297 L2,11.4067708 L6.20711853,6.58389264 L11.1983092,10.9370716 L19.0721795,5 Z" id="Path-10" fill="#F4F7FF" transform="translate(12.462925, 11.628349) rotate(30.000000) translate(-12.462925, -11.628349) "></path>
                    </g>
                    <path d="M34.6,42.4 L34.6,43.6 C34.6,45.2687143 33.998922,46.7970393 33.0014658,47.9802751 L33,78.4 L28.2,78.4 L28.2007266,50.3883884 C28.0681349,50.3960937 27.9345237,50.4 27.8,50.4 C27.6658135,50.4 27.5325348,50.3961133 27.4002703,50.3884462 L27.4,78.4 L22.6,78.4 L22.5985342,47.9802751 C21.601078,46.7970393 21,45.2687143 21,43.6 L21,42.4 L34.6,42.4 Z" id="形状结合" fill="#7686D4"></path>
                    <rect id="Rectangle-69-Copy-2" fill="#8B8B8B" x="20.2" y="6.4" width="1.6" height="2.4"></rect>
                    <rect id="Rectangle-69-Copy-3" fill="#8B8B8B" x="33.8" y="4" width="1.6" height="4.8"></rect>
                    <path d="M31.4,79.2 L32.2,79.2 C34.409139,79.2 36.2,80.990861 36.2,83.2 L36.2,83.2 L36.2,83.2 L28.2,83.2 L28.2,82.4 C28.2,80.6326888 29.6326888,79.2 31.4,79.2 Z" id="Rectangle-75-Copy-2" fill="#4A4A4A"></path>
                    <path d="M23.4,79.2 L24.2,79.2 C26.409139,79.2 28.2,80.990861 28.2,83.2 L28.2,83.2 L28.2,83.2 L20.2,83.2 L20.2,82.4 C20.2,80.6326888 21.6326888,79.2 23.4,79.2 Z" id="Rectangle-75-Copy-3" fill="#4A4A4A" transform="translate(24.200000, 81.200000) scale(-1, 1) translate(-24.200000, -81.200000) "></path>
                    <rect id="Rectangle-76-Copy" fill="#2D3D8E" x="21" y="40" width="13.6" height="2.4"></rect>
                    <path d="M23.4,1.6 L33.8,1.6 C34.6836556,1.6 35.4,2.3163444 35.4,3.2 L35.4,4 C35.4,5.3254834 34.3254834,6.4 33,6.4 L20.2,6.4 L20.2,6.4 L20.2,4.8 C20.2,3.0326888 21.6326888,1.6 23.4,1.6 Z" id="Rectangle-64-Copy-2" fill="#595959"></path>
                    <rect id="Rectangle-66-Copy" fill="#FFE4A9" x="25.8" y="14.4" width="4.8" height="7.2" rx="2.4"></rect>
                    <rect id="Rectangle-67" fill="#2D3D8E" x="26.6" y="23.2" width="2.4" height="2.4"></rect>
                    <rect id="Rectangle-67-Copy" fill="#2D3D8E" x="26.6" y="26.4" width="2.4" height="10.4"></rect>
                </g>
                <path d="M153.769231,125.384615 C160.141747,125.384615 165.307692,130.550561 165.307692,136.923077 C165.307692,143.295593 160.141747,148.461538 153.769231,148.461538 C147.396714,148.461538 142.230769,143.295593 142.230769,136.923077 C142.230769,130.550561 147.396714,125.384615 153.769231,125.384615 Z M153.769231,60.7692308 C160.141747,60.7692308 165.307692,65.935176 165.307692,72.3076923 L165.307692,104.615385 C165.307692,110.987901 160.141747,116.153846 153.769231,116.153846 C147.396714,116.153846 142.230769,110.987901 142.230769,104.615385 L142.230769,72.3076923 C142.230769,65.935176 147.396714,60.7692308 153.769231,60.7692308 Z" id="Combined-Shape-Copy-3" fill="#FFFFFF" opacity="0.694568452"></path>
                <rect id="Rectangle-11-Copy-3" fill="#C8CDDC" x="56.0769231" y="150" width="89.2307692" height="27.6923077"></rect>
                <polygon id="Rectangle-11-Copy-4" fill="#C8CDDC" points="72.264214 125.384615 129.120401 125.384615 139.153846 143.846154 62.2307692 143.846154"></polygon>
                <polygon id="Rectangle-11-Copy-5" fill="url(#linearGradient-3)" points="126.807617 128.461538 136.076923 146.923077 65.3076923 146.923077 74.5029297 128.461538"></polygon>
                <polygon id="Rectangle-11-Copy-7" fill="url(#linearGradient-4)" points="62.6866097 143.846154 138.698006 143.846154 145.307692 150 56.0769231 150"></polygon>
                <polygon id="Rectangle-5-Copy-2" fill="#AEB2BF" points="56.0769231 171.538462 145.307692 171.538462 145.307692 177.692308 56.0769231 177.692308"></polygon>
                <path d="M56.0769231,177.692308 L71.4615385,177.692308 L71.4615385,183.846154 C71.4615385,185.545492 70.0839531,186.923077 68.3846154,186.923077 L59.1538462,186.923077 C57.4545085,186.923077 56.0769231,185.545492 56.0769231,183.846154 L56.0769231,177.692308 L56.0769231,177.692308 Z" id="Rectangle-12-Copy-2" fill="#7A7A7A"></path>
                <path d="M129.923077,177.692308 L145.307692,177.692308 L145.307692,183.846154 C145.307692,185.545492 143.930107,186.923077 142.230769,186.923077 L133,186.923077 C131.300662,186.923077 129.923077,185.545492 129.923077,183.846154 L129.923077,177.692308 L129.923077,177.692308 Z" id="Rectangle-12-Copy-3" fill="#7A7A7A"></path>
                <path d="M59.1538462,153.076923 L74.5384615,153.076923 C77.9371369,153.076923 80.6923077,155.832094 80.6923077,159.230769 L80.6923077,159.230769 L80.6923077,159.230769 L62.2307692,159.230769 C60.5314315,159.230769 59.1538462,157.853184 59.1538462,156.153846 L59.1538462,153.076923 L59.1538462,153.076923 Z" id="Rectangle-13-Copy-2" fill="#AEB2BF"></path>
                <path d="M120.692308,153.076923 L136.076923,153.076923 C139.475598,153.076923 142.230769,155.832094 142.230769,159.230769 L142.230769,159.230769 L142.230769,159.230769 L123.769231,159.230769 C122.069893,159.230769 120.692308,157.853184 120.692308,156.153846 L120.692308,153.076923 L120.692308,153.076923 Z" id="Rectangle-13-Copy-3" fill="#AEB2BF" transform="translate(131.461538, 156.153846) scale(-1, 1) translate(-131.461538, -156.153846) "></path>
                <path d="M89.9230769,159.230769 L111.461538,159.230769 C114.860214,159.230769 117.615385,161.98594 117.615385,165.384615 L117.615385,171.538462 L117.615385,171.538462 L83.7692308,171.538462 L83.7692308,165.384615 C83.7692308,161.98594 86.5244015,159.230769 89.9230769,159.230769 Z" id="Rectangle-14-Copy" fill="#AEB2BF"></path>
                <path d="M56.0769231,137.692308 L62.2307692,137.692308 L62.2307692,137.692308 L62.2307692,143.846154 L56.0769231,143.846154 C54.3775854,143.846154 53,142.468568 53,140.769231 C53,139.069893 54.3775854,137.692308 56.0769231,137.692308 Z" id="Rectangle-16-Copy-2" fill="#C8CDDC"></path>
                <path d="M142.230769,137.692308 L148.384615,137.692308 L148.384615,137.692308 L148.384615,143.846154 L142.230769,143.846154 C140.531432,143.846154 139.153846,142.468568 139.153846,140.769231 C139.153846,139.069893 140.531432,137.692308 142.230769,137.692308 Z" id="Rectangle-16-Copy-3" fill="#C8CDDC" transform="translate(143.769231, 140.769231) scale(-1, 1) translate(-143.769231, -140.769231) "></path>
                <circle id="Oval-7-Copy-2" fill="#919191" cx="65.3076923" cy="171.538462" r="3.07692308"></circle>
                <circle id="Oval-7-Copy-3" fill="#919191" cx="136.076923" cy="171.538462" r="3.07692308"></circle>
            </g>
        </g>
    </g>
</svg>