<?xml version="1.0" encoding="UTF-8"?>
<svg width="1em" height="1em" viewBox="0 0 26 26" version="1.1" xmlns="http://www.w3.org/2000/svg" xmlns:xlink="http://www.w3.org/1999/xlink">
    <g id="页面-1" stroke="none" stroke-width="1" fill="none" fill-rule="evenodd">
        <g id="代购申请-基本信息-未填写-copy备份-12" transform="translate(-30.000000, -592.000000)" fill="#FF8D00">
            <g id="Group" transform="translate(0.000000, 565.000000)">
                <g id="Page-1" transform="translate(30.000000, 27.000000)">
                    <path d="M14.7485117,8.43915581 C13.9208397,8.43915581 13.2534781,7.83898418 13.2534781,6.95069208 C13.2534781,6.06239998 13.9229345,5.46222835 14.7485117,5.46222835 C15.5718354,5.46222835 16.2456717,6.06239998 16.2456717,6.95069208 C16.2456717,7.83898418 15.5739619,8.43915581 14.7485117,8.43915581 M15.0388538,17.7819016 C14.0573463,19.2552261 13.0606678,20.3884111 11.3792986,20.3884111 C10.2331009,20.2020754 9.76296114,19.3808464 10.0122022,18.5445099 L12.1723757,11.3923113 C12.2243313,11.2168936 12.1376857,11.0305579 11.9773437,10.9741589 C11.8191917,10.9178551 11.505014,11.1258998 11.2341275,11.4204632 L9.92987296,12.991383 C9.89515124,12.729161 9.92761954,12.2915214 9.92761954,12.1159767 C10.9070641,10.6426204 12.5190216,9.48131528 13.6131367,9.48131528 C14.651075,9.58744823 15.1406386,10.4194683 14.9608728,11.3316911 L12.7854331,18.5185797 C12.7573129,18.6832064 12.8418638,18.8435167 12.991383,18.8997887 C13.1494716,18.953966 13.4875482,18.7481747 13.7583078,18.451358 L15.064784,16.880565 C15.097411,17.1426601 15.0388538,17.6042622 15.0388538,17.7819016 M13.0000793,0 C5.81963357,0 0,5.82188699 0,13.0000793 C0,20.1781447 5.81963357,26 13.0000793,26 C20.1803664,26 26,20.1760183 26,13.0000793 C26,5.82188699 20.1803664,0 13.0000793,0" id="Fill-1"></path>
                </g>
            </g>
        </g>
    </g>
</svg>
