<?xml version="1.0" encoding="UTF-8"?>
<svg width="315px" height="197px" viewBox="0 0 315 197" version="1.1" xmlns="http://www.w3.org/2000/svg" xmlns:xlink="http://www.w3.org/1999/xlink">
    <!-- Generator: Sketch 64 (93537) - https://sketch.com -->
    <title>Group 19</title>
    <desc>Created with Sketch.</desc>
    <g id="SP" stroke="none" stroke-width="1" fill="none" fill-rule="evenodd">
        <g id="代购申请-基本信息-未填写备份-3" transform="translate(-40.000000, -1136.000000)">
            <g id="编组-11备份-4" transform="translate(0.000000, 269.000000)">
                <g id="编组-2" transform="translate(0.000000, 774.000000)">
                    <g id="编组" transform="translate(40.000000, 93.000000)">
                        <g id="Group-20">
                            <g>
                                <g id="Group-19">
                                    <rect id="Rectangle-6" fill="#F4F5F7" x="0" y="0" width="315" height="197" rx="18.4341451"></rect>
                                    <g id="Group-16" transform="translate(18.421053, 33.140187)" fill-opacity="0.1">
                                        <rect id="Rectangle-10" fill="#56A8F9" x="0" y="0" width="20.2631579" height="11.046729"></rect>
                                        <rect id="Rectangle-10" fill="#56A8F9" x="0" y="19.3317757" width="20.2631579" height="11.046729"></rect>
                                        <rect id="Rectangle-10" fill="#56A8F9" x="0" y="40.5046729" width="20.2631579" height="11.046729"></rect>
                                        <rect id="Rectangle-10" fill="#56A8F9" x="0" y="59.8364486" width="20.2631579" height="11.046729"></rect>
                                        <rect id="Rectangle-10" fill="#56A8F9" x="0" y="115.990654" width="70.9210526" height="11.046729"></rect>
                                        <rect id="Rectangle-10" fill="#000000" x="33.1578947" y="0" width="37.7631579" height="11.046729"></rect>
                                        <rect id="Rectangle-10" fill="#000000" x="33.1578947" y="19.3317757" width="99.4736842" height="11.046729"></rect>
                                        <rect id="Rectangle-10" fill="#000000" x="33.1578947" y="40.5046729" width="99.4736842" height="11.046729"></rect>
                                        <rect id="Rectangle-10" fill="#000000" x="33.1578947" y="59.8364486" width="156.578947" height="11.046729"></rect>
                                        <rect id="Rectangle-10" fill="#000000" x="33.1578947" y="74.5654206" width="99.4736842" height="11.046729"></rect>
                                        <rect id="Rectangle-10" fill="#000000" x="83.8157895" y="115.990654" width="156.578947" height="11.046729"></rect>
                                        <path d="M278.157895,61.0603156 L278.157895,60.2621415 L278.157895,59.0648804 C276.967611,47.8904436 265.8583,39.1105289 252.368421,39.1105289 C238.878543,39.1105289 227.769231,47.8904436 226.578947,58.6657933 L226.578947,61.0603156 C226.578947,65.4502729 230.149798,69.0420561 234.51417,69.0420561 L270.222672,69.0420561 C274.587045,69.0420561 278.157895,65.4502728 278.157895,61.0603156 L278.157895,61.0603156 Z M252.368421,34.7205716 C261.890688,34.7205716 269.42915,27.137918 269.42915,17.5598293 C269.42915,7.98174061 261.890688,4.72510919e-13 252.368421,4.72510919e-13 C242.846154,4.72510919e-13 235.307692,7.98174061 235.307692,17.5598293 C235.307692,27.137918 242.846154,34.7205716 252.368421,34.7205716 Z" id="Shape" fill="#000000" fill-rule="nonzero"></path>
                                    </g>
                                    <rect id="Rectangle-6" fill="#F4F5F7" opacity="0.300011322" x="0" y="0" width="315" height="197" rx="18.4341451"></rect>
                                    <path d="M157.5,72.7242991 L157.499579,94.8172991 L178.684211,94.817757 L178.684211,97.5794393 L157.499579,97.5792991 L157.5,118.752336 L154.736842,118.752336 L154.736579,97.5792991 L132.631579,97.5794393 L132.631579,94.817757 L154.736579,94.8172991 L154.736842,72.7242991 L157.5,72.7242991 Z" id="Combined-Shape" fill="#999999"></path>
                                </g>
                            </g>
                        </g>
                    </g>
                </g>
            </g>
        </g>
    </g>
</svg>