<?xml version="1.0" encoding="UTF-8"?>
<svg width="28px" height="28px" viewBox="0 0 28 28" version="1.1" xmlns="http://www.w3.org/2000/svg" xmlns:xlink="http://www.w3.org/1999/xlink">
    <!-- Generator: Sketch 64 (93537) - https://sketch.com -->
    <title>形状</title>
    <desc>Created with Sketch.</desc>
    <g id="SP" stroke="none" stroke-width="1" fill="none" fill-rule="evenodd">
        <g id="iPhone-8备份-17" transform="translate(-555.000000, -539.000000)" fill="#D5D5D5" fill-rule="nonzero">
            <g id="编组-4" transform="translate(534.000000, 523.000000)">
                <g id="搜索" transform="translate(21.000000, 16.000000)">
                    <path d="M20.8056053,18.1019139 L28,25.2986551 L25.2988352,28 L18.1025738,20.8051257 C13.245984,24.2576923 6.554161,23.4129162 2.70783531,18.8616931 C-1.13849038,14.3104699 -0.856258242,7.57100051 3.35711876,3.35734259 C7.57049576,-0.856315332 14.3095159,-1.13856628 18.8604356,2.70801585 C23.4113553,6.55459799 24.2560751,13.2468672 20.8037386,18.1037808 L20.8056053,18.1019139 Z M11.3827875,18.9990801 C14.0898868,19.0413927 16.6096546,17.6214024 17.9755663,15.2837847 C19.3414779,12.946167 19.3414779,10.053833 17.9755663,7.7162153 C16.6096546,5.37859758 14.0898868,3.9586073 11.3827875,4.00091991 C7.28685461,4.06494032 4,7.403569 4,11.5 C4,15.596431 7.28685461,18.9350597 11.3827875,18.9990801 L11.3827875,18.9990801 Z" id="形状"></path>
                </g>
            </g>
        </g>
    </g>
</svg>