<?xml version="1.0" encoding="UTF-8"?>
<svg width="1em" height="1em" viewBox="0 0 28 28" version="1.1" xmlns="http://www.w3.org/2000/svg" xmlns:xlink="http://www.w3.org/1999/xlink">
    <!-- Generator: Sketch 64 (93537) - https://sketch.com -->
    <title>Fill 1</title>
    <desc>Created with Sketch.</desc>
    <g id="Fill-1" stroke="none" stroke-width="1" fill="none" fill-rule="evenodd">
        <path d="M14.0000793,1 C6.81963357,1 1,6.82188699 1,14.0000793 C1,21.1781447 6.81963357,27 14.0000793,27 C21.1803664,27 27,21.1760183 27,14.0000793 C27,6.82188699 21.1803664,1 14.0000793,1" id="Path" stroke="#FF8903"></path>
        <path d="M15.498934,9 C14.6691028,9 14,8.39517677 14,7.5 C14,6.60482323 14.6712029,6 15.498934,6 C16.3244057,6 17,6.60482323 17,7.5 C17,8.39517677 16.3265378,9 15.498934,9" id="Path" fill="#FF8903"></path>
        <path d="M15.965297,18.3712888 C15.0143784,19.8571628 14.0487616,21 12.4197926,21 C11.3093165,20.8120772 10.8538287,19.9838531 11.0953021,19.1403929 L13.1881534,11.9272734 C13.2384898,11.7503616 13.1545445,11.5624387 12.9991996,11.5055593 C12.8459764,11.448776 12.5415902,11.6585927 12.2791459,11.9556651 L11.0155387,13.5399657 C10.9818991,13.2755102 11.0133555,12.8341428 11.0133555,12.6571029 C11.9622755,11.1711969 13.523996,10 14.5840127,10 C15.5896034,10.107037 16.0639097,10.946144 15.8897463,11.8661369 L13.7821047,19.1142418 C13.7548609,19.2802707 13.8367767,19.4419465 13.9816361,19.4986978 C14.1347979,19.5533366 14.4623382,19.3457925 14.7246595,19.0464475 L15.9904191,17.4622749 C16.0220293,17.7266024 15.965297,18.1921363 15.965297,18.3712888" id="Path" fill="#FF8903"></path>
    </g>
</svg>
