<?xml version="1.0" encoding="UTF-8"?>
<svg width="42px" height="34px" viewBox="0 0 42 34" version="1.1" xmlns="http://www.w3.org/2000/svg" xmlns:xlink="http://www.w3.org/1999/xlink">
    <!-- Generator: Sketch 64 (93537) - https://sketch.com -->
    <title>认证备份 3</title>
    <desc>Created with Sketch.</desc>
    <defs>
        <linearGradient x1="39.6314168%" y1="95.5578513%" x2="70.0827906%" y2="-11.3272929%" id="linearGradient-1">
            <stop stop-color="#FF5400" offset="0%"></stop>
            <stop stop-color="#F8A339" offset="100%"></stop>
        </linearGradient>
        <linearGradient x1="39.6314168%" y1="100%" x2="70.0827906%" y2="-17.3070515%" id="linearGradient-2">
            <stop stop-color="#FF5400" offset="0%"></stop>
            <stop stop-color="#F8A339" offset="100%"></stop>
        </linearGradient>
    </defs>
    <g id="认证备份-3" stroke="none" stroke-width="1" fill="none" fill-rule="evenodd">
        <g id="客户" transform="translate(4.000000, 2.000000)">
            <path d="M27.2427273,22.6443537 C25.3677273,21.1579901 19.9663637,18.6884446 19.9663636,18.6884446 L16.4563636,25.2611719 L15.9368182,23.6957173 L16.8968182,21.7184446 L14.9740909,19.7425355 L13.0527273,21.7198083 L14.0154546,23.697081 L13.395,25.2993537 L9.98181817,18.6884446 C9.98181817,18.6884446 4.57772728,21.15799 2.70272728,22.6443537 C0.827727275,24.1307173 0,28.6443537 0,28.6443537 L30,28.6443537 C30,28.6443537 29.4504546,24.3952628 27.2427273,22.6443537 Z M15.1513636,18.1225413 C19.5559091,18.1157173 22.4918182,12.1470809 22.4918182,8.93299005 C22.4918182,5.72162643 22.4795454,0.00799004883 15.15,0.00799004883 C7.82454545,0.00799004883 7.81363638,5.72162643 7.81363638,8.93299005 C7.81363638,12.1470809 10.7495455,18.1293537 15.1527273,18.1225413 L15.1513636,18.1225413 Z" id="形状" fill="url(#linearGradient-1)" fill-rule="nonzero"></path>
            <circle id="椭圆形" stroke="#FFFFFF" stroke-width="2" fill="url(#linearGradient-2)" cx="28" cy="22" r="9"></circle>
            <polyline id="路径-6" stroke="#FFFFFF" stroke-width="3" points="23 22 26.6666667 25 32 18"></polyline>
        </g>
    </g>
</svg>